<?xml version="1.0" encoding="UTF-8" standalone="no"?>
<svg
   width="512"
   height="512"
   viewBox="0 0 512 512"
   version="1.1"
   id="svg20"
   sodipodi:docname="appiconfg.svg"
   xml:space="preserve"
   inkscape:version="1.2.2 (732a01da63, 2022-12-09)"
   xmlns:inkscape="http://www.inkscape.org/namespaces/inkscape"
   xmlns:sodipodi="http://sodipodi.sourceforge.net/DTD/sodipodi-0.dtd"
   xmlns="http://www.w3.org/2000/svg"
   xmlns:svg="http://www.w3.org/2000/svg"><defs
     id="defs24" /><sodipodi:namedview
     id="namedview22"
     pagecolor="#ffffff"
     bordercolor="#000000"
     borderopacity="0.25"
     inkscape:showpageshadow="2"
     inkscape:pageopacity="0.0"
     inkscape:pagecheckerboard="0"
     inkscape:deskcolor="#d1d1d1"
     showgrid="false"
     inkscape:zoom="1.0029297"
     inkscape:cx="-77.772152"
     inkscape:cy="348.47907"
     inkscape:window-width="2560"
     inkscape:window-height="1351"
     inkscape:window-x="-9"
     inkscape:window-y="-9"
     inkscape:window-maximized="1"
     inkscape:current-layer="svg20" /><path
     style="fill:none;stroke:#ffffff;stroke-width:23;stroke-linecap:round;stroke-linejoin:round;stroke-opacity:1;paint-order:markers fill stroke;stroke-dasharray:none"
     d="m 279.43136,66.67965 c 16.13298,13.970699 178.55556,153.4558 192.18694,168.13243 13.63139,14.67663 -5.88796,36.70594 -16.4518,34.64849 -11.42055,-2.2243 -35.90457,-26.14899 -35.89483,-26.17333 l -1.49562,177.48004 c 0,0 4.98539,34.89776 -25.42551,34.89776 -30.41091,0 -263.72737,0.49854 -263.72737,0.49854 0,0 -25.92405,-1.99415 -26.92113,-35.3963 -0.99707,-33.40214 -2.991232,-177.7293 -2.991232,-177.7293 0,0 -26.67186,30.4109 -41.628043,25.92404 -14.956183,-4.48685 -20.938655,-18.9445 -16.95034,-26.92113 3.988315,-7.97663 92.977605,-82.50827 92.977605,-82.50827 0,0 94.59786,-84.3778 107.68452,-95.719572 13.31447,-11.539207 22.50383,-11.104097 38.63681,2.866602 z"
     id="path978"
     sodipodi:nodetypes="zzsccscscsscsz" /><path
     style="fill:none;stroke:#ffffff;stroke-width:23;stroke-linecap:round;stroke-linejoin:round;stroke-dasharray:none;stroke-opacity:1;paint-order:markers fill stroke"
     d="m 141.71329,256.28249 1.7626,150.87882 230.54849,0.35252 0.70503,-149.46874"
     id="path1090"
     sodipodi:nodetypes="cccc" /><path
     style="fill:none;stroke:#ffffff;stroke-width:23;stroke-linecap:round;stroke-linejoin:round;stroke-dasharray:none;stroke-opacity:1;paint-order:markers fill stroke"
     d="m 142.41833,210.80733 115.97928,-98.00073 116.3318,98.70577"
     id="path1092" /><path
     style="fill:none;stroke:#ffffff;stroke-width:23;stroke-linecap:round;stroke-linejoin:round;stroke-dasharray:none;stroke-opacity:1;paint-order:markers fill stroke"
     d="m 351.46305,124.7923 -0.35252,-54.993219 64.86379,0.705041 1.05757,112.101558"
     id="path1094"
     sodipodi:nodetypes="cccc" /><path
     style="fill:none;stroke:#ffffff;stroke-width:23;stroke-linecap:round;stroke-linejoin:round;stroke-dasharray:none;stroke-opacity:1;paint-order:markers fill stroke"
     d="m 375.43446,107.87131 v 36.30962"
     id="path1096" /></svg>
